<svg width="500" height="340" viewBox="0 0 500 340" fill="none" xmlns="http://www.w3.org/2000/svg">
<path d="M197.174 75.9402L197.117 75.9908L197.078 76.0563L188.897 89.7032C185.253 86.0898 181.989 81.078 179.56 75.6609C177.034 70.0268 175.427 63.9899 175.22 58.6818C174.805 48.0375 178.548 37.7026 185.623 29.9498C192.699 22.197 202.528 17.6602 212.95 17.3386C223.21 17.0219 233.216 20.8154 240.837 27.8974L214.136 57.5889L214.115 57.6118L214.097 57.637L211.597 61.2127L211.523 61.3196L211.508 61.4503L211.008 66.0477L210.996 66.158L211.031 66.2633L212.531 70.8607L212.542 70.8949L212.558 70.927L213.942 73.755L210.7 72.2832L210.655 72.2626L210.607 72.2516L206.107 71.23L205.999 71.2056L205.892 71.23L201.392 72.2516L201.269 72.2796L201.174 72.3644L197.174 75.9402Z" fill="#F6D7B0" stroke="#F6D7B0"/>
<path d="M187.634 87.2106L198.556 75.2256C200.216 73.4041 202.477 72.274 204.905 72.0519L206.014 71.9505C207.646 71.8013 209.289 72.0686 210.796 72.7285L215.5 74.7881L213.184 70.3936C212.407 68.9193 212 67.2714 212 65.5979L212 64.6362C212 62.5977 212.604 60.6077 213.731 58.9276L214.219 58.2017C214.495 57.7898 214.801 57.3994 215.135 57.0337L241.634 27.9553" stroke="#F6D7B0"/>
<path fill-rule="evenodd" clip-rule="evenodd" d="M335.389 194.956C335.377 195.007 335.365 195.069 335.353 195.12L335.45 195.019C335.426 194.994 335.414 194.969 335.389 194.956ZM328.259 132.875C328.6 133.188 328.941 133.528 329.258 133.879C331.557 132.794 333.244 130.904 334.895 129.054C336.589 127.157 338.244 125.301 340.484 124.399C342.442 124.339 342.483 125.341 342.527 126.39C342.566 127.333 342.606 128.313 344.043 128.593C344.565 128.347 345.135 128.123 345.723 127.892C348.296 126.882 351.207 125.739 351.832 122.101C353.728 111.078 361.408 106.701 369.127 102.301C371.679 100.847 374.235 99.3901 376.588 97.6898C385.047 110.134 385.047 110.134 377.343 121.423C375.992 123.406 374.654 125.4 373.316 127.394C372.494 128.618 371.672 129.843 370.847 131.066C380.012 127.15 387.637 130.079 395.086 132.94C398.386 134.208 401.651 135.462 405 136.102C405.192 139.773 404.687 143.377 404.185 146.958C403.129 154.485 402.087 161.911 407.572 169.654C407.458 165.312 409.007 162.711 410.514 160.178C410.781 159.73 411.047 159.283 411.302 158.83C413.624 154.696 416.953 155.062 420.252 155.425C421.092 155.518 421.929 155.61 422.747 155.628C426.661 155.71 426.851 158.536 427.031 161.231C427.072 161.843 427.112 162.447 427.196 163.011C428.091 169.103 428.911 175.213 429.732 181.324C430.107 184.118 430.482 186.914 430.865 189.708C431.23 189.77 431.608 189.846 431.974 189.921C434.241 182.789 436.508 175.656 438.836 168.298C447.393 176.234 482.204 189.042 491.504 186.606C455.547 174.878 431.889 150.693 414.69 119.062C412.533 115.106 408.925 114.29 405.341 113.487C397.601 111.741 392.031 107.673 388.106 100.302C385.44 95.3085 382.219 90.6341 378.74 85.5864C377.145 83.2715 375.496 80.8781 373.821 78.3395C367.873 89.8417 362.436 99.7868 349.76 101.181C348.771 101.297 347.826 102.786 347.02 104.055C346.872 104.288 346.729 104.513 346.591 104.722C342.032 111.663 337.507 118.633 332.981 125.604C331.408 128.028 329.834 130.452 328.259 132.875ZM343.897 120.443C345.823 123.068 344.47 123.997 342.166 124.851C341.44 122.802 342.235 122.099 343.028 121.398C343.353 121.11 343.677 120.823 343.897 120.443ZM39.2726 201.511C39.6017 201.838 39.9186 202.164 40.2112 202.528C48.4103 196.689 56.6095 190.862 65.283 184.697L65.954 184.22C66.1574 185.798 66.3276 187.144 66.4872 188.405C66.6336 189.563 66.7711 190.65 66.9169 191.779C68.7331 191.227 70.5736 190.7 72.4507 190.185C73.8999 189.382 75.3411 188.583 76.7931 187.779C78.9071 186.607 81.044 185.423 83.2622 184.195C83.5548 185.325 83.8351 186.38 84.1154 187.422C88.2962 186.568 92.6233 185.827 97.0844 185.174C102.703 178.883 108.956 173.836 120.292 177.477C116.404 168.675 114.819 161.505 117.55 153.255C121.572 156.577 125.37 159.713 129.042 162.744C131.545 164.811 133.989 166.83 136.406 168.825C133.541 174.639 129.409 178.783 125.058 182.525C126.618 182.45 128.19 182.374 129.763 182.324C133.639 182.173 137.734 182.098 141.879 182.085L153.092 182.337C160.15 176.472 169.267 174.187 178.921 172.781C180.342 172.571 181.735 172.17 183.13 171.769C184.319 171.427 185.51 171.085 186.721 170.859C186.932 170.82 187.146 170.778 187.363 170.735C189.003 170.413 190.785 170.062 192.206 170.583C206.163 175.669 219.059 182.927 230.918 191.892C234.66 192.596 238.402 193.324 242.132 194.065C228.806 170.513 205.862 157.668 181.464 144.01C178.48 142.339 175.474 140.656 172.46 138.94C185.436 137.756 190.346 129.873 195.309 121.907C195.978 120.833 196.647 119.758 197.338 118.698C199.454 115.448 201.305 111.952 203.159 108.451C208.569 98.2345 214.006 87.9682 226.116 83.6009C226.579 83.4377 227.103 82.9354 227.237 82.4833C229.201 75.6938 233.719 70.9898 238.243 66.2781C240.99 63.4173 243.74 60.5536 245.923 57.2186C254.394 64.8407 259.014 73.4172 256.332 84.9068C253.833 85.71 251.148 85.7675 248.498 85.8241C244.272 85.9145 240.135 86.0029 236.988 89.1134C230.426 95.6105 224.221 102.5 217.57 109.886C214.708 113.064 211.764 116.333 208.674 119.702C210.642 119.794 212.422 119.93 214.073 120.056C217.369 120.307 220.149 120.518 222.886 120.267C229.59 119.665 233.905 122.264 236.988 128.404C237.198 128.822 237.407 129.246 237.617 129.673C239.332 133.159 241.142 136.838 244.606 138.852C248.649 141.199 252.638 143.657 256.627 146.115C269.623 154.122 282.622 162.131 297.47 166.339C301.512 167.483 304.881 169.734 308.277 172.004C309.428 172.773 310.583 173.544 311.767 174.275C317.789 177.984 322.741 182.838 327.687 187.685C330.209 190.158 332.73 192.628 335.389 194.944C336.003 192.568 335.469 190.276 334.912 187.887C334.33 185.391 333.723 182.789 334.378 179.875C339.712 185.758 341.329 193.005 342.958 200.302C343.917 204.594 344.879 208.903 346.603 212.963C347.682 213.101 348.737 213.225 349.792 213.35L349.809 213.352C350.272 210.552 350.113 208.078 349.199 205.994C347.49 202.066 348.301 198.851 348.976 196.17L349.016 196.011C360.876 190.913 369.152 195.76 376.831 203.771C380.552 207.649 384.697 211.089 388.837 214.525C389.349 214.95 389.862 215.375 390.373 215.801C390.81 215.801 391.248 215.807 391.687 215.813C392.128 215.82 392.572 215.826 393.018 215.826C393.366 215.826 393.716 215.823 394.066 215.82C394.417 215.817 394.767 215.814 395.115 215.814C392.825 212.975 390.53 210.142 388.235 207.311C380.756 198.083 373.285 188.865 366.056 179.448C356.208 166.603 346.006 154.309 331.44 146.838C329.222 145.695 327.698 143.862 326.528 141.564C324.612 137.79 322.614 134.052 320.617 130.313C316.566 122.731 312.514 115.147 309.134 107.258C304.015 95.3166 296.373 86.5392 285.11 80.8634C274.798 75.6523 267.912 67.3144 263.402 56.4526C260.942 50.5281 258.112 44.7764 255.143 38.742C253.801 36.0152 252.431 33.2308 251.054 30.3466C248.779 32.8882 246.537 35.3861 244.32 37.8555C238.925 43.8655 233.681 49.7069 228.481 55.5988C227.632 56.5589 226.725 57.4944 225.817 58.4305C220.766 63.6398 215.695 68.8697 220.582 78.5027C210.441 78.9673 206.833 85.6602 203.128 92.554C200.85 96.7928 198.417 100.942 195.983 105.09C193.428 109.446 190.873 113.801 188.501 118.258C186.283 122.427 183.406 125.165 179.006 126.345C170.059 128.743 163.404 134.293 157.883 141.828C154.448 146.51 150.731 150.968 146.993 155.45C145.358 157.41 143.719 159.376 142.098 161.366C136.129 157.137 131.163 152.162 126.214 147.204C122.523 143.506 118.841 139.817 114.758 136.453C112.837 138.643 110.923 140.796 109.024 142.932C104.686 147.812 100.428 152.601 96.341 157.536C93.2206 161.316 89.8199 163.363 84.8956 164.079C83.7995 164.236 82.6639 164.303 81.5181 164.372C77.8989 164.587 74.1784 164.809 71.2806 167.871C63.5359 176.051 55.7653 184.204 47.9924 192.359C45.0857 195.409 42.1787 198.459 39.2726 201.511ZM342.715 166.213C315.168 156.18 294.24 138.136 276.627 114.893C290.095 112.57 303.978 118.233 310.573 129.421C318.313 142.556 326.82 154.699 340.643 161.743C341.764 162.321 343.032 163.049 342.715 166.213Z" fill="#FAFAFA"/>
<path d="M488.92 201.325C484.995 205.18 480.815 208.696 476.415 211.81C467.578 218.026 457.985 222.785 447.966 226.113C427.903 232.768 406.523 234.036 385.522 232.291C375.003 231.437 364.521 229.754 354.197 227.494C349.041 226.351 343.921 225.008 338.948 223.526L323.456 218.516L315.497 215.941C312.84 215.075 310.158 214.384 307.489 213.593C302.138 212.074 296.799 210.492 291.424 209.023C286.036 207.616 280.625 206.31 275.225 204.954C269.813 203.611 264.352 202.531 258.916 201.3C215.317 192.171 170.388 187.839 125.704 191.305C103.398 193.163 81.1779 196.943 59.7255 203.523C49.0237 206.875 38.4925 210.781 28.4001 215.703C23.3661 218.177 18.4174 220.814 13.615 223.702C8.87351 226.678 4.18078 229.792 0 233.521C4.86336 230.847 9.873 228.599 14.9923 226.64C20.0873 224.643 25.2432 222.873 30.46 221.303C40.8815 218.189 51.4493 215.741 62.0901 213.857C83.3719 210.102 104.898 208.458 126.411 208.269C169.474 208.043 212.403 213.618 254.748 222.408C275.944 226.715 296.994 232.115 317.874 238.004L333.963 242.512C339.582 243.969 345.177 245.061 350.808 246.015C362.046 247.924 373.406 248.916 384.803 249.054C396.187 249.142 407.633 248.326 418.895 246.216C430.146 244.107 441.25 240.779 451.659 235.832C462.056 230.884 471.771 224.405 479.986 216.381C484.094 212.375 487.86 208.056 491.224 203.46C494.539 198.826 497.526 193.992 500 188.906C496.538 193.314 492.894 197.52 488.92 201.325Z" fill="#81C784"/>
<path d="M62.7824 261.8H78.3344V329H62.7824V261.8ZM32.2544 329H16.7024V261.8H32.2544V329ZM63.9344 301.448H31.1024V288.296H63.9344V301.448ZM94.2336 329V261.8H109.786V329H94.2336ZM139.654 313.64L138.79 295.688L170.95 261.8H188.23L159.238 293L150.598 302.216L139.654 313.64ZM125.734 329V261.8H141.19V329H125.734ZM171.718 329L147.814 299.72L157.99 288.68L189.862 329H171.718ZM211.1 288.872H243.452V300.968H211.1V288.872ZM212.252 316.52H248.828V329H196.796V261.8H247.58V274.28H212.252V316.52ZM261.202 329V261.8H276.754V316.328H310.45V329H261.202ZM319.14 329V261.8H334.692V329H319.14ZM350.64 329V261.8H363.504L403.152 310.184H396.912V261.8H412.272V329H399.504L359.76 280.616H366V329H350.64ZM442.091 313.64L441.227 295.688L473.387 261.8H490.667L461.675 293L453.035 302.216L442.091 313.64ZM428.171 329V261.8H443.627V329H428.171ZM474.155 329L450.251 299.72L460.427 288.68L492.299 329H474.155Z" fill="#FAFAFA"/>
</svg>
